<!DOCTYPE svg PUBLIC "-//W3C//DTD SVG 1.1//EN" "http://www.w3.org/Graphics/SVG/1.1/DTD/svg11.dtd">
<!-- Uploaded to: SVG Repo, www.svgrepo.com, Transformed by: SVG Repo Mixer Tools -->
<svg width="99px" height="99px" viewBox="0 0 512 512" xmlns="http://www.w3.org/2000/svg" fill="#deddda" stroke="#deddda">
<g id="SVGRepo_bgCarrier" stroke-width="0"/>
<g id="SVGRepo_tracerCarrier" stroke-linecap="round" stroke-linejoin="round"/>
<g id="SVGRepo_iconCarrier">
<title>ionicons-v5-q</title>
<line x1="256" y1="32" x2="256" y2="480" style="fill:none;stroke:#deddda;stroke-linecap:round;stroke-linejoin:round;stroke-width:32px"/>
<path d="M313.72,80A111.47,111.47,0,0,1,256,96a111.47,111.47,0,0,1-57.72-16" style="fill:none;stroke:#deddda;stroke-linecap:round;stroke-linejoin:round;stroke-width:32px"/>
<path d="M198.28,432a112.11,112.11,0,0,1,115.44,0" style="fill:none;stroke:#deddda;stroke-linecap:round;stroke-linejoin:round;stroke-width:32px"/>
<line x1="449.99" y1="144" x2="62.01" y2="368" style="fill:none;stroke:#deddda;stroke-linecap:round;stroke-linejoin:round;stroke-width:32px"/>
<path d="M437.27,218a112.09,112.09,0,0,1-57.71-100" style="fill:none;stroke:#deddda;stroke-linecap:round;stroke-linejoin:round;stroke-width:32px"/>
<path d="M74.73,294a112.09,112.09,0,0,1,57.71,100" style="fill:none;stroke:#deddda;stroke-linecap:round;stroke-linejoin:round;stroke-width:32px"/>
<line x1="62.01" y1="144" x2="449.99" y2="368" style="fill:none;stroke:#deddda;stroke-linecap:round;stroke-linejoin:round;stroke-width:32px"/>
<path d="M74.73,218a112.09,112.09,0,0,0,57.71-100" style="fill:none;stroke:#deddda;stroke-linecap:round;stroke-linejoin:round;stroke-width:32px"/>
<path d="M437.27,294a112.09,112.09,0,0,0-57.71,100" style="fill:none;stroke:#deddda;stroke-linecap:round;stroke-linejoin:round;stroke-width:32px"/>
</g>
</svg>